<svg width="400" height="400" xmlns="http://www.w3.org/2000/svg">
  <defs>
    <!-- Gradient pour l'effet 3D -->
    <linearGradient id="hexGrad1" x1="0%" y1="0%" x2="0%" y2="100%">
      <stop offset="0%" style="stop-color:#1a1a1a;stop-opacity:1" />
      <stop offset="50%" style="stop-color:#0d0d0d;stop-opacity:1" />
      <stop offset="100%" style="stop-color:#000000;stop-opacity:1" />
    </linearGradient>
    
    <linearGradient id="hexGrad2" x1="100%" y1="0%" x2="0%" y2="100%">
      <stop offset="0%" style="stop-color:#262626;stop-opacity:1" />
      <stop offset="100%" style="stop-color:#0a0a0a;stop-opacity:1" />
    </linearGradient>
    
    <!-- Pattern des hexagones -->
    <pattern id="hexPattern" width="173.2" height="150" patternUnits="userSpaceOnUse">
      <!-- Hexagone ligne 1 -->
      <g transform="translate(0, 0)">
        <polygon points="86.6,0 129.9,25 129.9,75 86.6,100 43.3,75 43.3,25" 
                 fill="url(#hexGrad1)" 
                 stroke="#2a2a2a" 
                 stroke-width="2"/>
        <polygon points="86.6,0 129.9,25 129.9,75 86.6,100 43.3,75 43.3,25" 
                 fill="none" 
                 stroke="#404040" 
                 stroke-width="1" 
                 opacity="0.5"/>
      </g>
      
      <!-- Hexagone ligne 2 décalé -->
      <g transform="translate(86.6, 75)">
        <polygon points="86.6,0 129.9,25 129.9,75 86.6,100 43.3,75 43.3,25" 
                 fill="url(#hexGrad2)" 
                 stroke="#2a2a2a" 
                 stroke-width="2"/>
        <polygon points="86.6,0 129.9,25 129.9,75 86.6,100 43.3,75 43.3,25" 
                 fill="none" 
                 stroke="#404040" 
                 stroke-width="1" 
                 opacity="0.5"/>
      </g>
      
      <!-- Hexagone gauche -->
      <g transform="translate(-86.6, 75)">
        <polygon points="86.6,0 129.9,25 129.9,75 86.6,100 43.3,75 43.3,25" 
                 fill="url(#hexGrad1)" 
                 stroke="#2a2a2a" 
                 stroke-width="2"/>
        <polygon points="86.6,0 129.9,25 129.9,75 86.6,100 43.3,75 43.3,25" 
                 fill="none" 
                 stroke="#404040" 
                 stroke-width="1" 
                 opacity="0.5"/>
      </g>
    </pattern>
  </defs>
  
  <!-- Fond noir -->
  <rect width="100%" height="100%" fill="#000000"/>
  
  <!-- Application du pattern -->
  <rect width="100%" height="100%" fill="url(#hexPattern)"/>
</svg>
